<svg id="svg" version="1.1" xmlns="http://www.w3.org/2000/svg" xmlns:xlink="http://www.w3.org/1999/xlink" width="130" height="130" viewBox="0, 0, 390, 295"><g id="svgg"><path id="path0" d="M134.506 2.994 C 133.925 3.635,133.956 3.724,135.577 6.077 C 136.495 7.410,144.340 18.850,153.010 31.500 C 194.915 92.637,196.477 94.849,196.976 93.752 C 197.357 92.917,197.152 92.534,193.356 86.953 C 191.144 83.700,189.333 80.959,189.333 80.863 C 189.333 80.766,185.339 74.870,180.458 67.760 C 175.576 60.650,163.488 43.021,153.596 28.583 C 143.703 14.146,135.495 2.333,135.356 2.333 C 135.217 2.333,134.834 2.631,134.506 2.994 M92.540 60.955 C 92.027 61.523,133.846 113.529,140.183 120.203 C 140.724 120.773,147.317 128.748,154.833 137.924 C 168.170 154.207,168.511 154.590,168.939 153.782 C 169.218 153.256,169.265 152.812,169.067 152.561 C 168.896 152.344,164.199 146.609,158.628 139.817 C 153.058 133.024,146.507 124.999,144.070 121.983 C 124.109 97.273,93.951 60.583,93.476 60.431 C 93.279 60.369,92.858 60.604,92.540 60.955 M210.487 65.025 C 209.399 67.130,204.667 77.427,204.667 77.691 C 204.667 77.843,203.090 81.299,201.164 85.371 C 197.749 92.589,197.674 92.795,198.205 93.605 C 198.865 94.613,198.404 95.380,202.685 86.152 C 204.553 82.127,206.261 78.608,206.481 78.333 C 206.954 77.741,212.667 65.487,212.667 65.065 C 212.667 64.078,210.993 64.048,210.487 65.025 M241.106 78.766 C 236.711 86.870,232.956 93.875,232.761 94.333 C 232.567 94.792,229.102 101.227,225.063 108.635 C 217.958 121.665,217.736 122.129,218.238 122.895 C 218.523 123.331,218.794 123.645,218.839 123.594 C 218.885 123.542,222.254 117.350,226.326 109.833 C 230.398 102.317,234.023 95.749,234.383 95.239 C 234.862 94.559,247.060 72.407,250.682 65.639 C 250.952 65.134,250.839 64.934,250.054 64.528 L 249.097 64.033 241.106 78.766 M305.882 64.744 C 305.442 65.446,290.763 92.410,269.450 131.667 C 264.524 140.742,260.234 148.729,259.918 149.417 C 259.602 150.104,257.156 154.669,254.482 159.561 C 250.027 167.711,249.655 168.522,250.038 169.238 C 250.616 170.318,250.567 170.391,255.656 161.015 C 258.090 156.531,260.352 152.481,260.684 152.015 C 262.069 150.065,307.997 65.264,307.821 64.980 C 307.280 64.105,306.354 63.992,305.882 64.744 M198.386 95.851 C 197.815 97.103,216.184 124.109,216.922 123.104 C 217.589 122.196,217.726 122.425,208.169 108.500 C 197.724 93.282,198.877 94.773,198.386 95.851 M190.845 107.419 C 187.735 114.063,183.780 122.500,182.055 126.167 C 168.574 154.836,169.153 153.440,170.553 153.907 C 171.271 154.146,197.734 96.915,197.289 96.085 C 196.667 94.922,196.824 94.646,190.845 107.419 M218.372 124.881 C 218.021 125.651,218.083 125.927,218.874 127.129 C 219.816 128.560,248.012 169.727,248.221 169.976 C 248.422 170.216,249.322 168.855,249.197 168.500 C 249.113 168.262,225.504 133.726,219.175 124.585 C 218.806 124.051,218.739 124.076,218.372 124.881 M202.459 150.075 C 188.719 175.281,188.431 175.847,189.033 176.481 C 189.796 177.285,187.709 180.850,203.658 151.500 C 211.229 137.567,217.478 126.070,217.544 125.951 C 217.609 125.833,217.401 125.417,217.082 125.027 C 216.512 124.331,216.217 124.836,202.459 150.075 M170.388 155.514 C 170.019 156.324,186.403 177.333,187.404 177.333 C 189.100 177.333,180.767 165.934,171.011 154.908 C 170.885 154.765,170.605 155.038,170.388 155.514 M168.238 155.570 C 168.140 155.898,166.010 160.517,163.506 165.833 C 161.001 171.150,157.659 178.275,156.078 181.667 C 154.497 185.058,152.996 188.133,152.742 188.500 C 152.488 188.867,145.616 203.406,137.471 220.809 L 122.662 252.452 123.393 253.230 C 124.334 254.232,124.064 254.644,127.926 246.333 C 130.749 240.258,147.480 204.528,152.960 192.870 C 153.899 190.874,154.667 189.119,154.667 188.971 C 154.667 188.823,158.042 181.489,162.167 172.674 C 170.433 155.009,169.907 156.320,169.042 155.538 C 168.455 155.006,168.408 155.008,168.238 155.570 M242.312 181.907 C 238.957 188.100,235.677 194.011,235.023 195.044 C 234.369 196.076,231.358 201.509,228.333 207.118 C 225.308 212.726,222.748 217.319,222.643 217.324 C 222.538 217.329,220.688 215.166,218.531 212.517 C 216.374 209.868,214.380 207.510,214.100 207.278 C 213.820 207.046,208.266 200.363,201.757 192.428 C 189.232 177.157,189.700 177.669,189.109 178.616 C 188.773 179.154,190.206 181.037,200.529 193.618 C 207.021 201.531,212.333 208.089,212.333 208.192 C 212.333 208.296,214.358 210.842,216.833 213.851 C 219.308 216.861,221.333 219.468,221.333 219.646 C 221.333 219.823,218.244 225.635,214.469 232.561 C 210.694 239.487,207.408 245.534,207.167 245.999 C 206.732 246.840,206.737 246.844,207.999 246.724 L 209.268 246.603 216.051 234.135 C 219.781 227.278,222.927 221.668,223.041 221.667 C 223.155 221.667,229.582 229.392,237.324 238.833 C 245.065 248.275,251.469 256.000,251.553 256.000 C 251.790 256.000,251.288 252.911,250.945 252.248 C 250.778 251.926,244.789 244.531,237.637 235.814 C 230.484 227.097,224.554 219.760,224.457 219.509 C 224.361 219.258,227.402 213.311,231.215 206.293 C 235.028 199.274,238.176 193.375,238.212 193.183 C 238.247 192.991,240.764 188.268,243.805 182.688 C 249.647 171.968,249.561 172.162,248.862 171.241 C 248.461 170.711,247.757 171.858,242.312 181.907 M250.216 171.364 C 249.725 172.065,249.857 172.324,253.184 177.185 C 255.100 179.983,256.667 182.366,256.667 182.480 C 256.667 182.651,294.447 237.861,294.869 238.306 C 295.132 238.583,296.686 237.532,296.548 237.171 C 296.366 236.698,259.173 182.560,257.042 179.667 C 256.164 178.475,254.385 175.954,253.088 174.065 C 250.780 170.702,250.719 170.646,250.216 171.364 M186.919 178.692 C 186.641 179.136,183.900 184.150,180.829 189.833 C 177.758 195.517,175.056 200.392,174.824 200.667 C 174.466 201.091,146.667 251.950,146.667 252.180 C 146.667 252.224,147.169 252.319,147.782 252.391 C 148.895 252.521,148.902 252.513,151.079 248.510 C 152.279 246.305,158.301 235.248,164.460 223.940 C 170.620 212.632,175.842 202.957,176.065 202.440 C 176.289 201.923,179.140 196.584,182.402 190.575 C 188.845 178.708,188.532 179.399,187.879 178.506 C 187.443 177.910,187.404 177.917,186.919 178.692 M223.499 220.003 C 223.247 220.798,222.896 220.844,222.325 220.157 C 221.992 219.755,221.987 219.461,222.300 218.772 L 222.699 217.898 223.204 218.619 C 223.491 219.028,223.618 219.628,223.499 220.003 M200.725 257.769 C 197.500 263.685,197.350 264.333,199.200 264.333 C 200.311 264.333,204.032 256.328,203.931 254.155 L 203.833 252.066 200.725 257.769 M143.705 257.586 C 143.139 258.793,142.986 259.645,143.064 261.153 L 143.167 263.135 144.750 260.169 C 146.620 256.665,146.722 256.000,145.390 256.000 C 144.591 256.000,144.334 256.242,143.705 257.586 M117.901 262.619 C 115.885 266.964,115.678 268.097,116.871 268.267 C 118.153 268.450,120.051 263.834,119.930 260.832 L 119.833 258.454 117.901 262.619 M256.835 260.992 C 256.971 261.996,257.325 263.186,257.620 263.636 L 258.156 264.454 258.401 263.019 C 258.667 261.463,258.460 260.850,257.324 259.830 L 256.586 259.167 256.835 260.992 M261.333 266.238 C 261.333 267.072,261.376 267.100,261.873 266.603 C 262.169 266.307,262.311 265.900,262.186 265.699 C 261.777 265.037,261.333 265.318,261.333 266.238 M112.337 274.469 C 111.649 275.953,109.783 279.937,108.191 283.324 C 105.490 289.066,105.335 289.510,105.891 289.917 C 106.993 290.722,107.337 290.196,111.500 281.333 C 116.270 271.180,115.958 272.118,114.628 271.923 C 113.615 271.775,113.556 271.840,112.337 274.469 " stroke="none" fill="#f3f3f3" fill-rule="evenodd"></path><path id="path1" d="" stroke="none" fill="#bcc4c4" fill-rule="evenodd"></path><path id="path2" d="M161.440 247.333 C 161.440 248.525,161.501 249.012,161.574 248.417 C 161.648 247.821,161.648 246.846,161.574 246.250 C 161.501 245.654,161.440 246.142,161.440 247.333 M189.773 247.333 C 189.773 248.525,189.834 249.012,189.908 248.417 C 189.982 247.821,189.982 246.846,189.908 246.250 C 189.834 245.654,189.773 246.142,189.773 247.333 M283.107 247.333 C 283.107 248.525,283.167 249.012,283.241 248.417 C 283.315 247.821,283.315 246.846,283.241 246.250 C 283.167 245.654,283.107 246.142,283.107 247.333 M359.440 247.333 C 359.440 248.525,359.501 249.012,359.574 248.417 C 359.648 247.821,359.648 246.846,359.574 246.250 C 359.501 245.654,359.440 246.142,359.440 247.333 M94.100 250.667 C 94.100 251.675,94.162 252.088,94.239 251.583 C 94.315 251.079,94.315 250.254,94.239 249.750 C 94.162 249.246,94.100 249.658,94.100 250.667 M227.767 250.667 C 227.767 251.675,227.829 252.088,227.905 251.583 C 227.982 251.079,227.982 250.254,227.905 249.750 C 227.829 249.246,227.767 249.658,227.767 250.667 M47.118 253.833 C 47.117 255.483,47.174 256.200,47.244 255.427 C 47.313 254.653,47.314 253.303,47.245 252.427 C 47.177 251.550,47.119 252.183,47.118 253.833 M96.770 254.167 C 96.772 255.267,96.834 255.676,96.908 255.077 C 96.982 254.478,96.981 253.578,96.905 253.077 C 96.829 252.576,96.768 253.067,96.770 254.167 M230.437 254.167 C 230.438 255.267,230.501 255.676,230.575 255.077 C 230.649 254.478,230.648 253.578,230.572 253.077 C 230.495 252.576,230.435 253.067,230.437 254.167 M94.138 261.833 C 94.138 265.133,94.188 266.438,94.249 264.733 C 94.309 263.028,94.309 260.328,94.248 258.733 C 94.187 257.138,94.137 258.533,94.138 261.833 M227.804 261.833 C 227.805 265.133,227.855 266.438,227.915 264.733 C 227.976 263.028,227.976 260.328,227.915 258.733 C 227.854 257.138,227.804 258.533,227.804 261.833 M143.005 257.917 C 143.009 258.584,143.091 258.705,143.308 258.364 C 143.471 258.105,143.528 257.693,143.433 257.447 C 143.163 256.742,143.000 256.921,143.005 257.917 M325.583 260.569 C 325.996 260.648,326.671 260.648,327.083 260.569 C 327.496 260.489,327.158 260.424,326.333 260.424 C 325.508 260.424,325.171 260.489,325.583 260.569 M47.122 264.833 C 47.123 266.667,47.179 267.374,47.246 266.405 C 47.314 265.437,47.313 263.937,47.245 263.072 C 47.176 262.207,47.121 263.000,47.122 264.833 M143.132 267.500 C 143.132 270.067,143.184 271.073,143.248 269.735 C 143.311 268.398,143.311 266.298,143.247 265.069 C 143.183 263.839,143.131 264.933,143.132 267.500 M43.589 268.575 C 44.188 268.649,45.088 268.648,45.589 268.572 C 46.090 268.495,45.600 268.435,44.500 268.437 C 43.400 268.438,42.990 268.501,43.589 268.575 M112.923 316.242 C 113.522 316.316,114.422 316.314,114.923 316.238 C 115.424 316.162,114.933 316.101,113.833 316.103 C 112.733 316.105,112.324 316.167,112.923 316.242 M200.256 316.242 C 200.855 316.316,201.755 316.314,202.256 316.238 C 202.757 316.162,202.267 316.101,201.167 316.103 C 200.067 316.105,199.657 316.167,200.256 316.242 M296.589 316.242 C 297.188 316.316,298.088 316.314,298.589 316.238 C 299.090 316.162,298.600 316.101,297.500 316.103 C 296.400 316.105,295.990 316.167,296.589 316.242 " stroke="none" fill="#8c9494" fill-rule="evenodd"></path><path id="path3" d="M204.107 253.667 C 204.107 254.858,204.167 255.346,204.241 254.750 C 204.315 254.154,204.315 253.179,204.241 252.583 C 204.167 251.987,204.107 252.475,204.107 253.667 " stroke="none" fill="#5c646c" fill-rule="evenodd"></path><path id="path4" d="M194.282 77.915 L 189.397 80.793 192.601 85.480 C 194.364 88.057,196.195 90.712,196.672 91.378 L 197.538 92.589 200.827 85.544 C 202.636 81.670,204.240 78.248,204.391 77.940 C 204.721 77.266,201.262 74.988,199.956 75.019 C 199.522 75.029,196.968 76.332,194.282 77.915 M202.730 86.541 C 200.310 91.748,199.057 94.814,199.230 95.101 C 201.254 98.446,217.516 121.617,217.707 121.427 C 217.850 121.284,220.910 115.766,224.508 109.167 C 228.105 102.567,231.470 96.412,231.986 95.490 L 232.923 93.812 221.231 86.990 C 214.800 83.237,208.855 79.775,208.019 79.297 L 206.500 78.428 202.730 86.541 M163.333 95.988 L 139.500 109.935 139.404 112.952 L 139.309 115.969 143.934 121.568 C 146.478 124.647,153.172 132.792,158.810 139.667 C 164.448 146.542,169.170 152.208,169.304 152.258 C 169.527 152.341,196.344 95.470,196.337 94.929 C 196.331 94.544,187.636 81.998,187.390 82.020 C 187.267 82.032,176.442 88.317,163.333 95.988 M197.095 94.091 C 196.812 94.712,196.856 95.034,197.304 95.628 L 197.872 96.380 198.287 95.468 C 198.647 94.678,198.619 94.471,198.078 93.930 C 197.467 93.319,197.445 93.323,197.095 94.091 M233.543 97.083 C 228.463 106.239,219.007 123.843,219.078 124.011 C 219.259 124.438,249.446 168.331,249.503 168.250 C 249.536 168.204,252.063 163.577,255.118 157.967 L 260.672 147.767 260.586 128.850 L 260.500 109.934 247.706 102.467 C 240.670 98.360,234.865 95.000,234.806 95.000 C 234.747 95.000,234.179 95.938,233.543 97.083 M193.592 106.100 C 191.259 111.087,187.831 118.392,185.976 122.333 C 184.120 126.275,181.658 131.525,180.505 134.000 C 179.352 136.475,176.740 142.076,174.703 146.446 C 172.665 150.817,171.104 154.567,171.234 154.780 C 171.822 155.740,188.062 175.333,188.268 175.331 C 188.396 175.329,190.517 171.617,192.981 167.081 C 195.446 162.545,201.712 151.037,206.905 141.508 C 212.098 131.979,216.286 124.023,216.211 123.828 C 216.071 123.465,198.449 97.686,198.053 97.267 C 197.932 97.139,195.925 101.114,193.592 106.100 M139.415 149.998 L 139.500 180.481 146.167 184.378 C 150.149 186.707,152.888 188.120,152.968 187.888 C 153.043 187.675,156.529 180.172,160.716 171.215 C 164.903 162.258,168.223 154.758,168.094 154.548 C 167.773 154.029,140.735 121.002,139.953 120.174 C 139.344 119.530,139.332 120.218,139.415 149.998 M217.028 123.282 C 216.789 123.727,216.842 124.102,217.218 124.639 L 217.738 125.381 218.217 124.696 C 218.580 124.178,218.609 123.848,218.336 123.339 C 217.889 122.502,217.455 122.483,217.028 123.282 M211.660 137.251 C 208.294 143.438,202.041 154.917,197.766 162.760 C 193.491 170.604,189.957 177.135,189.913 177.275 C 189.869 177.414,195.295 184.197,201.970 192.347 C 208.646 200.498,214.152 207.224,214.208 207.293 C 214.263 207.362,218.873 204.762,224.451 201.515 L 234.595 195.610 241.347 183.222 C 245.061 176.408,248.102 170.683,248.103 170.500 C 248.105 170.267,218.610 126.962,217.851 126.084 C 217.812 126.039,215.026 131.064,211.660 137.251 M260.027 153.250 C 259.800 153.754,257.676 157.715,255.307 162.052 C 252.938 166.389,251.000 170.087,251.000 170.269 C 251.000 170.451,252.701 173.080,254.781 176.112 L 258.562 181.623 259.614 180.983 L 260.667 180.343 260.667 166.338 C 260.667 158.636,260.616 152.333,260.554 152.333 C 260.491 152.333,260.254 152.746,260.027 153.250 M169.032 153.895 C 168.709 154.604,168.738 154.860,169.199 155.369 C 170.211 156.487,170.970 154.947,169.998 153.747 L 169.423 153.037 169.032 153.895 M167.257 162.276 C 165.840 165.332,162.434 172.632,159.687 178.496 C 156.940 184.361,154.799 189.265,154.930 189.394 C 155.211 189.672,174.478 200.957,174.548 200.884 C 175.806 199.561,187.006 177.753,186.688 177.244 C 186.248 176.538,171.244 158.175,170.373 157.276 C 169.873 156.759,169.645 157.125,167.257 162.276 M249.021 169.628 C 248.623 170.371,249.037 171.667,249.672 171.667 C 250.268 171.667,250.448 169.972,249.909 169.433 C 249.450 168.974,249.360 168.994,249.021 169.628 M245.667 179.734 C 243.558 183.618,241.024 188.289,240.036 190.116 L 238.238 193.437 240.202 192.313 C 247.192 188.314,256.466 182.802,256.482 182.638 C 256.507 182.369,249.874 172.668,249.667 172.671 C 249.575 172.672,247.775 175.850,245.667 179.734 M187.837 176.987 C 187.485 178.096,188.303 179.282,188.877 178.496 C 189.439 177.729,189.454 177.254,188.933 176.733 C 188.367 176.167,188.076 176.235,187.837 176.987 M182.555 190.662 C 179.285 196.698,176.585 201.733,176.555 201.851 C 176.454 202.248,199.157 215.318,199.962 215.325 C 200.608 215.332,212.333 208.852,212.333 208.489 C 212.333 208.293,188.940 179.834,188.719 179.761 C 188.599 179.721,185.825 184.627,182.555 190.662 M101.236 245.209 C 101.106 245.338,101.000 247.967,101.000 251.050 L 101.000 256.655 99.333 257.500 C 97.669 258.343,97.667 258.347,97.667 260.006 C 97.667 261.873,97.813 261.945,99.680 260.993 L 101.000 260.320 101.000 266.160 L 101.000 272.000 103.500 272.000 L 106.000 272.000 106.000 264.996 L 106.000 257.993 107.833 257.094 L 109.667 256.194 109.667 254.446 L 109.667 252.697 107.917 253.509 L 106.167 254.321 106.000 249.744 L 105.833 245.167 103.653 245.070 C 102.453 245.016,101.366 245.079,101.236 245.209 M156.470 245.459 C 156.373 245.711,156.340 246.649,156.397 247.542 L 156.500 249.167 158.917 249.265 L 161.333 249.363 161.333 247.181 L 161.333 245.000 158.990 245.000 C 157.307 245.000,156.596 245.129,156.470 245.459 M184.803 245.459 C 184.706 245.711,184.673 246.649,184.730 247.542 L 184.833 249.167 187.250 249.265 L 189.667 249.363 189.667 247.181 L 189.667 245.000 187.323 245.000 C 185.640 245.000,184.929 245.129,184.803 245.459 M278.136 245.459 C 278.039 245.711,278.007 246.649,278.063 247.542 L 278.167 249.167 280.583 249.265 L 283.000 249.363 283.000 247.181 L 283.000 245.000 280.656 245.000 C 278.973 245.000,278.263 245.129,278.136 245.459 M336.667 258.500 L 336.667 272.000 339.000 272.000 L 341.333 272.000 341.333 258.500 L 341.333 245.000 339.000 245.000 L 336.667 245.000 336.667 258.500 M354.470 245.459 C 354.373 245.711,354.340 246.649,354.397 247.542 L 354.500 249.167 356.917 249.265 L 359.333 249.363 359.333 247.181 L 359.333 245.000 356.990 245.000 C 355.307 245.000,354.596 245.129,354.470 245.459 M37.667 259.333 L 37.667 272.000 43.661 272.000 L 49.656 272.000 50.745 271.027 L 51.833 270.055 51.833 265.229 C 51.833 261.191,51.743 260.302,51.277 259.785 C 50.755 259.206,50.761 259.117,51.360 258.380 C 51.911 257.702,52.000 257.042,52.000 253.613 C 52.000 246.964,51.630 246.667,43.350 246.667 L 37.667 246.667 37.667 259.333 M207.417 246.973 C 204.372 247.342,204.187 247.732,204.176 253.826 L 204.167 258.985 205.086 259.905 C 205.924 260.742,206.282 260.840,209.086 260.995 L 212.167 261.167 212.261 264.750 L 212.356 268.333 210.695 268.333 L 209.033 268.333 208.933 266.417 L 208.833 264.500 206.417 264.402 L 204.000 264.304 204.001 266.569 C 204.002 271.167,205.047 271.988,210.911 271.995 C 214.948 272.000,215.001 271.990,216.078 271.028 L 217.167 270.056 217.274 265.225 C 217.429 258.268,216.747 257.333,211.511 257.333 C 209.520 257.333,208.991 257.230,208.958 256.833 C 208.511 251.463,208.850 250.259,210.771 250.399 L 212.167 250.500 212.267 252.417 L 212.367 254.333 214.850 254.333 L 217.333 254.333 217.333 252.156 C 217.333 247.084,215.292 246.017,207.417 246.973 M89.333 250.500 C 89.333 252.315,89.323 252.333,88.333 252.333 C 87.343 252.333,87.333 252.352,87.333 254.167 C 87.333 255.974,87.347 256.000,88.315 256.000 L 89.296 256.000 89.398 262.993 L 89.500 269.986 90.422 270.908 C 91.246 271.731,91.626 271.842,94.005 271.950 L 96.667 272.071 96.667 270.202 C 96.667 268.378,96.645 268.333,95.733 268.333 C 94.091 268.333,94.000 267.987,94.000 261.767 L 94.000 256.000 95.333 256.000 L 96.667 256.000 96.667 254.167 L 96.667 252.333 95.333 252.333 L 94.000 252.333 94.000 250.500 L 94.000 248.667 91.667 248.667 L 89.333 248.667 89.333 250.500 M223.000 250.500 C 223.000 252.315,222.990 252.333,222.000 252.333 C 221.010 252.333,221.000 252.352,221.000 254.167 C 221.000 255.974,221.014 256.000,221.981 256.000 L 222.963 256.000 223.065 262.993 L 223.167 269.986 224.089 270.908 C 224.913 271.731,225.292 271.842,227.672 271.950 L 230.333 272.071 230.333 270.202 C 230.333 268.378,230.311 268.333,229.400 268.333 C 227.758 268.333,227.667 267.987,227.667 261.767 L 227.667 256.000 229.000 256.000 L 230.333 256.000 230.333 254.167 L 230.333 252.333 229.000 252.333 L 227.667 252.333 227.667 250.500 L 227.667 248.667 225.333 248.667 L 223.000 248.667 223.000 250.500 M47.131 250.861 C 47.394 251.545,47.394 256.122,47.131 256.806 C 46.976 257.211,46.433 257.333,44.798 257.333 L 42.667 257.333 42.667 253.833 L 42.667 250.333 44.798 250.333 C 46.433 250.333,46.976 250.456,47.131 250.861 M83.008 252.343 C 82.371 252.491,81.583 252.942,81.258 253.344 L 80.667 254.074 80.667 253.204 C 80.667 252.348,80.626 252.333,78.333 252.333 L 76.000 252.333 76.000 262.167 L 76.000 272.000 78.333 272.000 L 80.667 272.000 80.667 265.145 C 80.667 256.768,80.806 256.348,83.599 256.338 L 85.032 256.333 84.933 254.276 C 84.825 252.039,84.727 251.941,83.008 252.343 M314.008 252.343 C 313.371 252.491,312.583 252.942,312.258 253.344 L 311.667 254.074 311.667 253.204 C 311.667 252.348,311.626 252.333,309.333 252.333 L 307.000 252.333 307.000 262.167 L 307.000 272.000 309.333 272.000 L 311.667 272.000 311.667 265.145 C 311.667 256.768,311.806 256.348,314.599 256.338 L 316.032 256.333 315.933 254.276 C 315.825 252.039,315.727 251.941,314.008 252.343 M58.922 253.305 L 57.833 254.277 57.727 261.389 C 57.606 269.404,57.814 270.714,59.330 271.498 C 60.444 272.074,64.052 272.174,65.022 271.655 C 65.466 271.417,65.667 271.417,65.667 271.655 C 65.667 271.862,66.666 272.000,68.167 272.000 L 70.667 272.000 70.667 262.167 L 70.667 252.333 68.194 252.333 C 66.520 252.333,65.673 252.468,65.569 252.750 C 65.447 253.083,65.328 253.083,64.975 252.750 C 64.036 251.864,60.135 252.222,58.922 253.305 M113.333 252.760 C 111.602 253.624,111.334 254.876,111.334 262.094 C 111.333 271.720,111.329 271.714,117.802 271.933 L 122.229 272.083 123.365 271.069 L 124.500 270.055 124.500 262.264 L 124.500 254.473 123.333 253.413 L 122.167 252.353 118.167 252.348 C 115.626 252.345,113.863 252.495,113.333 252.760 M130.333 262.167 L 130.333 272.000 132.667 272.000 L 135.000 272.000 135.000 264.374 C 135.000 255.951,135.021 255.865,137.062 256.061 L 138.167 256.167 138.256 264.083 L 138.345 272.000 140.673 272.000 L 143.000 272.000 143.000 264.645 C 143.000 256.878,143.116 256.211,144.520 255.858 C 146.541 255.351,146.510 255.214,146.400 263.996 L 146.300 272.000 148.832 272.000 L 151.365 272.000 151.266 263.357 C 151.144 252.769,151.233 253.006,147.205 252.530 C 144.815 252.248,144.571 252.279,143.628 252.976 C 142.649 253.700,142.594 253.705,141.950 253.122 C 140.998 252.260,136.981 252.051,135.832 252.803 C 135.103 253.281,135.000 253.286,135.000 252.841 C 135.000 252.435,134.534 252.333,132.667 252.333 L 130.333 252.333 130.333 262.167 M156.667 262.167 L 156.667 272.000 159.000 272.000 L 161.333 272.000 161.333 262.167 L 161.333 252.333 159.000 252.333 L 156.667 252.333 156.667 262.167 M168.667 252.760 C 166.932 253.626,166.668 254.869,166.668 262.167 C 166.668 271.688,166.868 271.987,173.267 271.995 C 178.631 272.002,179.446 271.493,179.872 267.868 L 180.092 266.000 177.734 266.000 L 175.376 266.000 175.271 267.083 C 175.168 268.154,175.145 268.168,173.250 268.267 L 171.333 268.367 171.333 266.017 L 171.333 263.667 175.667 263.667 L 180.000 263.667 180.000 259.656 C 180.000 253.007,179.377 252.330,173.267 252.338 C 170.931 252.341,169.183 252.501,168.667 252.760 M185.000 263.008 L 185.000 273.683 184.000 273.883 C 183.038 274.076,183.000 274.151,183.000 275.875 L 183.000 277.667 184.493 277.667 C 189.495 277.667,189.667 277.197,189.667 263.517 L 189.667 252.333 187.333 252.333 L 185.000 252.333 185.000 263.008 M235.589 253.305 L 234.500 254.277 234.393 261.389 C 234.273 269.404,234.481 270.714,235.996 271.498 C 237.111 272.074,240.719 272.174,241.689 271.655 C 242.133 271.417,242.333 271.417,242.333 271.655 C 242.333 271.862,243.332 272.000,244.833 272.000 L 247.333 272.000 247.333 262.167 L 247.333 252.333 244.861 252.333 C 243.187 252.333,242.340 252.468,242.236 252.750 C 242.114 253.083,241.995 253.083,241.642 252.750 C 240.703 251.864,236.802 252.222,235.589 253.305 M251.476 253.189 C 251.594 253.659,251.823 255.099,251.985 256.388 C 252.147 257.677,252.846 261.717,253.539 265.366 L 254.799 272.000 257.544 272.000 C 259.871 272.000,260.314 271.911,260.459 271.417 C 260.638 270.801,260.986 268.497,261.182 266.618 C 261.453 264.036,262.550 259.204,262.720 259.845 C 262.819 260.219,263.333 263.111,263.862 266.274 L 264.824 272.024 267.627 271.928 L 270.430 271.833 271.550 266.167 C 272.165 263.050,273.022 258.662,273.453 256.417 L 274.238 252.333 271.993 252.333 L 269.747 252.333 268.636 259.375 C 267.904 264.019,267.450 266.134,267.303 265.586 C 267.181 265.129,266.659 261.960,266.142 258.544 L 265.203 252.333 262.667 252.333 L 260.132 252.333 259.409 257.083 C 258.455 263.363,258.413 263.616,258.070 265.167 L 257.775 266.500 257.544 265.167 C 257.417 264.433,257.167 263.370,256.988 262.804 C 256.809 262.238,256.593 260.888,256.507 259.804 C 256.422 258.720,256.174 256.596,255.956 255.083 L 255.559 252.333 253.410 252.333 C 251.269 252.333,251.262 252.337,251.476 253.189 M278.333 262.167 L 278.333 272.000 280.667 272.000 L 283.000 272.000 283.000 262.167 L 283.000 252.333 280.667 252.333 L 278.333 252.333 278.333 262.167 M289.922 253.305 L 288.833 254.277 288.727 261.389 C 288.606 269.404,288.814 270.714,290.330 271.498 C 291.444 272.074,295.052 272.174,296.022 271.655 C 296.466 271.417,296.667 271.417,296.667 271.655 C 296.667 271.862,297.666 272.000,299.167 272.000 L 301.667 272.000 301.667 262.167 L 301.667 252.333 299.194 252.333 C 297.520 252.333,296.673 252.468,296.569 252.750 C 296.447 253.083,296.328 253.083,295.975 252.750 C 295.036 251.864,291.135 252.222,289.922 253.305 M321.100 252.986 C 319.727 253.824,319.211 255.654,319.405 259.000 C 319.634 262.923,320.424 263.700,324.431 263.935 L 327.028 264.087 326.931 266.294 L 326.833 268.500 325.605 268.602 C 324.401 268.702,324.374 268.678,324.271 267.436 L 324.167 266.167 321.917 266.068 L 319.667 265.970 319.667 267.840 C 319.667 271.297,320.676 272.000,325.634 272.000 C 330.928 272.000,331.667 271.308,331.667 266.349 C 331.667 261.699,330.828 260.667,327.048 260.667 C 324.343 260.667,323.938 260.281,324.064 257.824 L 324.167 255.833 325.500 255.833 C 326.800 255.833,326.836 255.864,326.937 257.083 L 327.040 258.333 329.353 258.333 L 331.667 258.333 331.665 257.250 C 331.661 255.216,331.020 253.669,329.896 252.984 C 328.350 252.041,322.648 252.042,321.100 252.986 M343.716 256.858 C 341.252 262.300,341.271 261.302,343.530 266.708 C 344.555 269.160,345.471 271.354,345.566 271.583 C 345.682 271.864,346.552 272.000,348.238 272.000 C 350.106 272.000,350.695 271.895,350.570 271.583 C 350.477 271.354,349.478 269.059,348.349 266.484 L 346.297 261.801 348.482 257.192 C 349.684 254.657,350.667 252.527,350.667 252.458 C 350.667 252.390,349.564 252.333,348.216 252.333 L 345.765 252.333 343.716 256.858 M354.667 262.167 L 354.667 272.000 357.000 272.000 L 359.333 272.000 359.333 262.167 L 359.333 252.333 357.000 252.333 L 354.667 252.333 354.667 262.167 M65.500 262.167 L 65.500 268.167 64.000 268.167 L 62.500 268.167 62.408 262.512 C 62.299 255.757,62.253 255.932,64.080 256.064 L 65.500 256.167 65.500 262.167 M120.133 257.650 C 120.253 258.558,120.250 261.333,120.125 263.817 L 119.899 268.333 118.991 268.333 C 118.492 268.333,117.615 268.427,117.042 268.542 L 116.000 268.750 116.000 262.597 C 116.000 255.618,115.874 256.000,118.179 256.000 L 119.914 256.000 120.133 257.650 M175.333 258.167 L 175.333 260.333 173.333 260.333 L 171.333 260.333 171.333 258.167 L 171.333 256.000 173.333 256.000 L 175.333 256.000 175.333 258.167 M242.167 262.167 L 242.167 268.167 240.667 268.167 L 239.167 268.167 239.075 262.512 C 238.965 255.757,238.920 255.932,240.747 256.064 L 242.167 256.167 242.167 262.167 M296.500 262.167 L 296.500 268.167 295.000 268.167 L 293.500 268.167 293.408 262.512 C 293.299 255.757,293.253 255.932,295.080 256.064 L 296.500 256.167 296.500 262.167 M47.131 261.527 C 47.242 261.817,47.333 263.387,47.333 265.016 C 47.333 268.450,47.157 268.667,44.355 268.667 L 42.667 268.667 42.667 264.833 L 42.667 261.000 44.798 261.000 C 46.433 261.000,46.976 261.123,47.131 261.527 M86.667 307.167 L 86.667 316.000 91.000 316.000 L 95.333 316.000 95.333 314.667 L 95.333 313.333 92.667 313.333 L 90.000 313.333 90.000 310.833 L 90.000 308.333 92.167 308.333 L 94.333 308.333 94.333 307.000 L 94.333 305.667 92.167 305.667 L 90.000 305.667 90.000 303.347 L 90.000 301.028 92.583 300.931 L 95.167 300.833 95.270 299.583 L 95.374 298.333 91.020 298.333 L 86.667 298.333 86.667 307.167 M109.954 298.971 C 109.168 299.606,109.167 299.625,109.167 307.167 C 109.167 316.436,108.927 316.000,114.013 316.000 C 118.119 316.000,118.667 315.543,118.667 312.122 L 118.667 310.000 117.017 310.000 L 115.368 310.000 115.267 311.750 L 115.167 313.500 113.909 313.604 L 112.652 313.708 112.743 307.271 L 112.833 300.833 114.000 300.833 L 115.167 300.833 115.267 302.583 L 115.368 304.333 117.017 304.333 L 118.667 304.333 118.667 302.152 C 118.667 298.849,118.021 298.333,113.885 298.333 C 111.286 298.333,110.604 298.444,109.954 298.971 M123.352 298.981 C 121.913 300.421,121.858 314.207,123.287 315.363 C 124.169 316.077,129.809 316.304,130.987 315.674 C 132.964 314.615,132.964 299.718,130.987 298.660 C 129.783 298.015,124.078 298.256,123.352 298.981 M136.333 307.167 L 136.333 316.000 137.833 316.000 L 139.333 316.000 139.361 310.417 L 139.389 304.833 140.412 308.583 L 141.435 312.333 142.841 312.333 L 144.247 312.333 145.207 308.750 L 146.167 305.167 146.258 310.583 L 146.350 316.000 147.842 316.000 L 149.333 316.000 149.333 307.167 L 149.333 298.333 147.524 298.333 L 145.714 298.333 145.213 300.083 C 144.937 301.046,144.308 303.258,143.815 305.000 C 143.322 306.742,142.888 308.203,142.850 308.248 C 142.812 308.293,142.296 306.568,141.704 304.415 C 139.859 297.712,140.223 298.333,138.141 298.333 L 136.333 298.333 136.333 307.167 M153.667 307.167 L 153.667 316.000 155.167 316.000 L 156.667 316.000 156.695 310.417 L 156.723 304.833 157.745 308.583 L 158.768 312.333 160.174 312.333 L 161.580 312.333 162.540 308.750 L 163.500 305.167 163.592 310.583 L 163.683 316.000 165.175 316.000 L 166.667 316.000 166.667 307.167 L 166.667 298.333 164.857 298.333 L 163.047 298.333 162.546 300.083 C 162.270 301.046,161.641 303.258,161.148 305.000 C 160.655 306.742,160.221 308.203,160.183 308.248 C 160.145 308.293,159.630 306.568,159.037 304.415 C 157.192 297.712,157.556 298.333,155.474 298.333 L 153.667 298.333 153.667 307.167 M171.000 307.167 L 171.000 316.000 175.333 316.000 L 179.667 316.000 179.667 314.667 L 179.667 313.333 177.000 313.333 L 174.333 313.333 174.333 310.833 L 174.333 308.333 176.500 308.333 L 178.667 308.333 178.667 307.000 L 178.667 305.667 176.500 305.667 L 174.333 305.667 174.333 303.347 L 174.333 301.028 176.917 300.931 L 179.500 300.833 179.603 299.583 L 179.707 298.333 175.353 298.333 L 171.000 298.333 171.000 307.167 M183.000 307.167 L 183.000 316.000 184.667 316.000 L 186.333 316.000 186.333 312.667 C 186.333 308.193,186.860 308.192,188.564 312.666 L 189.833 315.999 191.583 316.000 C 193.680 316.000,193.665 316.131,191.998 312.288 C 190.726 309.355,190.671 308.698,191.696 308.672 C 192.279 308.657,192.667 306.580,192.667 303.469 C 192.667 298.509,192.474 298.333,187.015 298.333 L 183.000 298.333 183.000 307.167 M197.287 298.971 C 196.502 299.606,196.500 299.625,196.500 307.167 C 196.500 316.436,196.261 316.000,201.346 316.000 C 205.452 316.000,206.000 315.543,206.000 312.122 L 206.000 310.000 204.351 310.000 L 202.702 310.000 202.601 311.750 L 202.500 313.500 201.243 313.604 L 199.985 313.708 200.076 307.271 L 200.167 300.833 201.333 300.833 L 202.500 300.833 202.601 302.583 L 202.702 304.333 204.351 304.333 L 206.000 304.333 206.000 302.152 C 206.000 298.849,205.355 298.333,201.219 298.333 C 198.619 298.333,197.937 298.444,197.287 298.971 M210.000 307.167 L 210.000 316.000 214.333 316.000 L 218.667 316.000 218.667 314.667 L 218.667 313.333 216.000 313.333 L 213.333 313.333 213.333 310.833 L 213.333 308.333 215.500 308.333 L 217.667 308.333 217.667 307.000 L 217.667 305.667 215.500 305.667 L 213.333 305.667 213.333 303.347 L 213.333 301.028 215.917 300.931 L 218.500 300.833 218.603 299.583 L 218.707 298.333 214.353 298.333 L 210.000 298.333 210.000 307.167 M228.333 307.167 L 228.333 316.000 230.000 316.000 L 231.667 316.000 231.667 312.833 L 231.667 309.667 233.683 309.667 C 237.595 309.667,238.000 309.116,238.000 303.791 C 238.000 298.461,237.868 298.333,232.348 298.333 L 228.333 298.333 228.333 307.167 M241.667 307.167 L 241.667 316.000 243.333 316.000 L 245.000 316.000 245.000 312.667 C 245.000 308.193,245.527 308.192,247.231 312.666 L 248.500 315.999 250.250 316.000 C 252.346 316.000,252.332 316.131,250.665 312.288 C 249.392 309.355,249.338 308.698,250.363 308.672 C 250.946 308.657,251.333 306.580,251.333 303.469 C 251.333 298.509,251.140 298.333,245.682 298.333 L 241.667 298.333 241.667 307.167 M256.019 298.981 C 254.579 300.421,254.525 314.207,255.954 315.363 C 256.835 316.077,262.476 316.304,263.654 315.674 C 265.631 314.615,265.631 299.718,263.654 298.660 C 262.449 298.015,256.744 298.256,256.019 298.981 M273.333 305.833 L 273.333 313.333 272.333 313.333 C 271.343 313.333,271.333 313.315,271.333 311.500 L 271.333 309.667 269.667 309.667 L 268.000 309.667 268.000 312.109 C 268.000 315.528,268.521 316.000,272.293 316.000 C 276.976 316.000,277.000 315.947,277.000 305.784 L 277.000 298.333 275.167 298.333 L 273.333 298.333 273.333 305.833 M281.000 307.167 L 281.000 316.000 285.333 316.000 L 289.667 316.000 289.667 314.667 L 289.667 313.333 287.000 313.333 L 284.333 313.333 284.333 310.833 L 284.333 308.333 286.500 308.333 L 288.667 308.333 288.667 307.000 L 288.667 305.667 286.500 305.667 L 284.333 305.667 284.333 303.347 L 284.333 301.028 286.917 300.931 L 289.500 300.833 289.603 299.583 L 289.707 298.333 285.353 298.333 L 281.000 298.333 281.000 307.167 M293.620 298.971 C 292.835 299.606,292.833 299.625,292.833 307.167 C 292.833 316.436,292.594 316.000,297.679 316.000 C 301.786 316.000,302.333 315.543,302.333 312.122 L 302.333 310.000 300.684 310.000 L 299.035 310.000 298.934 311.750 L 298.833 313.500 297.576 313.604 L 296.319 313.708 296.409 307.271 L 296.500 300.833 297.667 300.833 L 298.833 300.833 298.934 302.583 L 299.035 304.333 300.684 304.333 L 302.333 304.333 302.333 302.152 C 302.333 298.849,301.688 298.333,297.552 298.333 C 294.952 298.333,294.271 298.444,293.620 298.971 M305.000 299.667 L 305.000 301.000 306.500 301.000 L 308.000 301.000 308.000 308.500 L 308.000 316.000 309.833 316.000 L 311.667 316.000 311.667 308.500 L 311.667 301.000 313.167 301.000 L 314.667 301.000 314.667 299.667 L 314.667 298.333 309.833 298.333 L 305.000 298.333 305.000 299.667 M128.667 307.167 L 128.667 313.333 127.333 313.333 L 126.000 313.333 126.000 307.167 L 126.000 301.000 127.333 301.000 L 128.667 301.000 128.667 307.167 M189.167 303.833 L 189.167 306.500 187.750 306.602 L 186.333 306.705 186.333 303.833 L 186.333 300.962 187.750 301.064 L 189.167 301.167 189.167 303.833 M234.500 304.000 L 234.500 306.833 233.083 306.936 L 231.667 307.038 231.667 304.000 L 231.667 300.962 233.083 301.064 L 234.500 301.167 234.500 304.000 M247.833 303.833 L 247.833 306.500 246.417 306.602 L 245.000 306.705 245.000 303.833 L 245.000 300.962 246.417 301.064 L 247.833 301.167 247.833 303.833 M261.333 307.167 L 261.333 313.333 260.000 313.333 L 258.667 313.333 258.667 307.167 L 258.667 301.000 260.000 301.000 L 261.333 301.000 261.333 307.167 M98.333 307.667 L 98.333 309.000 101.833 309.000 L 105.333 309.000 105.333 307.667 L 105.333 306.333 101.833 306.333 L 98.333 306.333 98.333 307.667 " stroke="none" fill="#2c3444" fill-rule="evenodd"></path></g></svg>